<?xml version="1.0" standalone="no"?>
<!DOCTYPE svg PUBLIC "-//W3C//DTD SVG 20010904//EN"
 "http://www.w3.org/TR/2001/REC-SVG-20010904/DTD/svg10.dtd">
<svg version="1.0" xmlns="http://www.w3.org/2000/svg"
 width="541.000000pt" height="371.000000pt" viewBox="0 0 541.000000 371.000000"
 preserveAspectRatio="xMidYMid meet">

<g transform="translate(0.000000,371.000000) scale(0.100000,-0.100000)"
fill="#000000" stroke="none">
<path d="M2040 1855 l0 -365 60 0 60 0 0 365 0 365 -60 0 -60 0 0 -365z"/>
<path d="M2870 1861 l0 -361 60 0 60 0 0 115 0 115 114 0 c105 0 118 2 167 28
39 20 62 41 84 77 28 45 30 56 30 140 0 84 -2 95 -30 140 -21 35 -45 56 -80
74 -47 25 -59 26 -227 29 l-178 3 0 -360z m362 210 c31 -27 33 -34 33 -94 0
-105 -45 -137 -190 -137 l-85 0 0 130 0 130 105 0 c102 0 106 -1 137 -29z"/>
<path d="M4560 1905 c0 -339 4 -368 52 -398 30 -20 99 -30 138 -22 28 6 30 9
30 56 l0 49 -34 0 c-62 0 -66 11 -66 201 l0 169 50 0 50 0 0 50 0 50 -50 0
-50 0 0 80 0 80 -60 0 -60 0 0 -315z"/>
<path d="M3582 2044 c-104 -52 -147 -139 -140 -283 5 -94 20 -134 72 -189 53
-57 101 -77 186 -77 85 0 133 20 186 77 51 53 67 95 72 184 5 99 -14 173 -59
228 -71 85 -212 112 -317 60z m178 -99 c85 -44 106 -215 36 -294 -52 -58 -133
-62 -186 -9 -76 75 -59 255 28 303 35 19 86 19 122 0z"/>
<path d="M4156 2056 c-111 -41 -160 -142 -112 -233 22 -44 59 -61 184 -85 59
-11 113 -24 120 -30 6 -6 12 -23 12 -39 0 -73 -139 -92 -225 -31 l-42 30 -44
-39 -44 -39 34 -30 c47 -40 120 -63 206 -64 86 -1 136 16 186 61 44 40 64 97
54 151 -15 80 -67 115 -203 138 -121 20 -134 27 -130 67 3 27 9 34 43 46 52
18 122 8 168 -24 l35 -23 36 37 c35 36 36 38 18 54 -60 55 -217 82 -296 53z"/>
<path d="M2402 2050 c-29 -4 -68 -11 -87 -14 l-35 -7 0 -269 0 -270 60 0 60 0
2 228 3 227 65 8 c76 10 111 0 137 -40 15 -23 18 -55 21 -226 l4 -198 56 3 57
3 0 215 c0 211 0 216 -25 259 -37 65 -91 91 -189 90 -42 -1 -100 -5 -129 -9z"/>
<path d="M3228 1265 c-6 -14 -15 -25 -20 -25 -4 0 -8 -9 -8 -20 0 -11 4 -20
10 -20 5 0 10 -26 12 -57 3 -51 6 -58 26 -61 21 -3 22 0 22 57 0 54 2 61 20
61 13 0 20 7 20 20 0 13 -7 20 -20 20 -11 0 -20 5 -20 10 0 6 9 10 20 10 11 0
20 7 20 15 0 10 -11 15 -35 15 -28 0 -38 -5 -47 -25z"/>
<path d="M3600 1184 c0 -104 0 -105 23 -102 18 2 23 10 25 48 4 54 17 72 51
68 24 -3 26 -8 31 -58 4 -48 8 -55 28 -58 21 -3 22 0 22 57 0 81 -22 106 -86
98 -43 -4 -44 -4 -44 24 0 24 -4 29 -25 29 l-25 0 0 -106z"/>
<path d="M4140 1185 c0 -97 1 -105 19 -105 11 0 23 5 26 10 4 7 12 7 25 0 34
-18 70 -11 102 20 25 26 29 36 24 63 -9 49 -41 70 -98 65 -47 -5 -48 -5 -48
23 0 24 -4 29 -25 29 l-25 0 0 -105z m128 9 c40 -27 22 -74 -28 -74 -32 0 -50
17 -50 47 0 15 8 27 23 33 30 12 30 12 55 -6z"/>
<path d="M2750 1260 c0 -11 -4 -20 -10 -20 -5 0 -10 -9 -10 -20 0 -11 4 -20 9
-20 5 0 11 -23 13 -50 3 -28 8 -53 12 -57 3 -3 25 -7 48 -7 33 -1 43 3 46 17
3 13 -3 17 -27 17 -29 0 -31 2 -31 39 0 36 3 40 27 43 17 2 29 10 31 21 3 13
-3 17 -27 17 -24 0 -31 4 -31 20 0 15 -7 20 -25 20 -18 0 -25 -5 -25 -20z"/>
<path d="M3460 1260 c0 -11 -7 -20 -15 -20 -8 0 -15 -9 -15 -20 0 -11 7 -20
15 -20 11 0 15 -12 15 -50 0 -55 15 -70 69 -70 24 0 31 4 31 19 0 14 -8 21
-27 23 -24 3 -28 8 -31 41 -3 35 -2 37 27 37 24 0 31 4 31 20 0 16 -7 20 -30
20 -23 0 -30 4 -30 20 0 13 -7 20 -20 20 -13 0 -20 -7 -20 -20z"/>
<path d="M2306 1219 c-28 -22 -35 -64 -16 -98 14 -27 65 -44 106 -38 51 9 74
32 74 78 0 50 -35 79 -95 79 -28 0 -51 -7 -69 -21z m102 -25 c40 -28 22 -74
-29 -74 -27 0 -59 22 -59 41 0 13 38 49 53 49 7 0 23 -7 35 -16z"/>
<path d="M2510 1196 c0 -89 40 -132 101 -109 17 7 31 7 35 2 3 -5 14 -9 25 -9
17 0 19 7 19 80 0 78 -1 80 -24 80 -23 0 -25 -4 -28 -51 -6 -96 -70 -96 -76 0
-3 47 -5 51 -28 51 -22 0 -24 -4 -24 -44z"/>
<path d="M3006 1219 c-20 -16 -26 -29 -26 -58 0 -46 23 -69 74 -78 94 -15 153
71 91 132 -32 33 -100 35 -139 4z m104 -29 c11 -11 20 -24 20 -29 0 -19 -32
-41 -59 -41 -51 0 -69 46 -29 74 30 21 44 20 68 -4z"/>
<path d="M3845 1215 c-65 -64 0 -148 102 -132 43 7 58 20 49 42 -4 12 -10 14
-25 5 -33 -17 -101 -10 -101 11 0 5 32 9 70 9 67 0 70 1 70 24 0 62 -116 91
-165 41z m99 -11 c31 -12 15 -24 -30 -24 -40 0 -45 2 -34 15 13 16 38 19 64 9z"/>
<path d="M4395 1215 c-46 -45 -24 -115 40 -131 85 -21 156 46 121 114 -18 35
-33 42 -92 42 -34 0 -51 -6 -69 -25z m103 -21 c40 -27 22 -74 -28 -74 -14 0
-31 5 -38 12 -18 18 -15 55 6 67 24 14 34 13 60 -5z"/>
<path d="M4590 1233 c0 -4 14 -22 32 -40 l32 -33 -39 -40 -39 -40 29 0 c20 0
37 9 52 28 l23 27 24 -28 c17 -22 30 -28 52 -25 l29 3 -37 40 -37 40 37 38 36
37 -29 0 c-16 0 -39 -10 -53 -22 l-24 -23 -18 23 c-17 20 -70 32 -70 15z"/>
</g>
</svg>
