<?xml version="1.0" standalone="no"?>
<!DOCTYPE svg PUBLIC "-//W3C//DTD SVG 20010904//EN"
 "http://www.w3.org/TR/2001/REC-SVG-20010904/DTD/svg10.dtd">
<svg version="1.0" xmlns="http://www.w3.org/2000/svg"
 width="270.000000pt" height="220.000000pt" viewBox="0 0 270.000000 220.000000"
 preserveAspectRatio="xMidYMid meet">

<g transform="translate(0.000000,220.000000) scale(0.100000,-0.100000)"
fill="#000000" stroke="none">
<path d="M1285 1704 c-75 -32 -84 -41 -44 -42 17 0 40 -8 50 -18 81 -73 -117
-259 -274 -259 -67 0 -91 20 -84 67 l3 27 -26 -19 c-29 -21 -73 -74 -83 -102
-10 -29 17 -41 81 -33 82 9 171 -14 300 -79 132 -67 180 -80 280 -74 107 6
176 41 268 132 60 61 134 163 134 189 0 4 -9 7 -19 7 -11 0 -28 -15 -41 -35
-32 -52 -118 -124 -184 -156 -119 -57 -227 -46 -284 29 -24 31 -27 44 -27 112
0 72 3 84 43 159 54 103 55 121 5 121 -21 -1 -65 -12 -98 -26z"/>
<path d="M1083 1571 c-40 -25 -65 -63 -57 -86 17 -44 149 30 142 80 -4 28 -45
30 -85 6z"/>
<path d="M1555 1556 c-43 -19 -75 -58 -82 -99 -4 -29 -1 -40 20 -61 32 -32 70
-33 115 -6 33 20 62 71 62 109 0 26 -30 59 -60 65 -14 3 -38 0 -55 -8z"/>
<path d="M1680 855 c0 -57 4 -95 10 -95 6 0 10 38 10 95 0 57 -4 95 -10 95 -6
0 -10 -38 -10 -95z"/>
<path d="M1840 855 c0 -57 4 -95 10 -95 6 0 10 14 10 30 0 38 10 38 35 0 11
-16 26 -30 34 -30 9 0 4 12 -14 36 l-27 35 23 25 c12 13 19 27 15 31 -4 5 -18
-4 -31 -19 -13 -16 -27 -28 -30 -28 -3 0 -5 25 -5 55 0 30 -4 55 -10 55 -6 0
-10 -38 -10 -95z"/>
<path d="M640 846 c0 -51 4 -86 10 -86 6 0 10 16 10 35 0 32 3 35 28 35 41 0
68 33 56 68 -8 24 -15 27 -57 30 l-47 3 0 -85z m74 58 c20 -20 20 -29 0 -49
-27 -26 -49 -15 -52 28 -3 31 0 37 17 37 11 0 27 -7 35 -16z"/>
<path d="M1410 845 c0 -82 15 -119 22 -53 3 28 8 33 37 39 37 8 51 23 51 55 0
31 -20 44 -67 44 l-43 0 0 -85z m78 63 c28 -28 -6 -78 -44 -64 -14 5 -20 57
-7 69 10 11 38 8 51 -5z"/>
<path d="M1140 906 c0 -8 -6 -17 -12 -20 -10 -5 -10 -7 0 -12 6 -3 12 -23 12
-44 0 -21 3 -45 6 -54 7 -18 54 -22 54 -4 0 6 -3 8 -7 5 -14 -14 -33 17 -33
54 0 32 3 39 20 39 11 0 20 5 20 10 0 6 -9 10 -20 10 -11 0 -20 7 -20 15 0 8
-4 15 -10 15 -5 0 -10 -6 -10 -14z"/>
<path d="M780 870 c-41 -41 -14 -110 43 -110 35 0 57 25 57 65 0 61 -58 87
-100 45z m78 -40 c3 -24 -2 -38 -14 -47 -23 -17 -29 -16 -48 3 -34 34 -12 87
34 82 21 -2 26 -9 28 -38z"/>
<path d="M926 874 c-20 -19 -21 -88 -2 -103 19 -16 68 -10 74 7 3 11 0 12 -17
2 -32 -17 -53 4 -49 49 3 33 5 36 36 36 34 0 42 9 16 19 -25 10 -42 7 -58 -10z"/>
<path d="M1030 881 c0 -5 11 -11 25 -13 l25 -3 -30 -45 c-16 -25 -30 -48 -30
-52 0 -5 20 -8 45 -8 50 0 62 17 15 22 l-30 3 29 44 c17 25 28 48 25 53 -7 11
-74 10 -74 -1z"/>
<path d="M1235 876 c-17 -12 -15 -14 20 -12 30 1 40 -3 43 -16 3 -14 -3 -18
-25 -18 -39 0 -55 -13 -51 -41 3 -21 9 -24 51 -25 l47 -2 0 48 c0 71 -38 100
-85 66z m63 -72 c-5 -25 -35 -41 -49 -27 -18 18 -3 43 26 43 19 0 26 -5 23
-16z"/>
<path d="M1558 880 c-25 -15 -33 -66 -14 -95 19 -29 76 -35 97 -9 19 23 15 85
-7 101 -21 15 -52 16 -76 3z m73 -36 c9 -26 -10 -68 -33 -72 -9 -2 -24 8 -34
23 -14 21 -15 31 -5 51 14 32 60 30 72 -2z"/>
<path d="M1740 875 c-16 -20 -6 -43 25 -57 34 -15 29 -44 -8 -41 -15 1 -27 -3
-27 -8 0 -6 17 -9 38 -7 32 3 37 7 40 29 2 21 -3 29 -27 39 -49 20 -40 46 13
40 11 -1 15 3 12 9 -10 16 -52 13 -66 -4z"/>
<path d="M1973 883 c-25 -10 -12 -20 23 -19 22 1 39 -4 41 -11 5 -13 -2 -17
-50 -28 -24 -5 -28 -10 -25 -33 3 -25 7 -27 51 -28 l47 -1 0 48 c0 66 -34 94
-87 72z m65 -79 c-5 -25 -35 -41 -49 -27 -18 18 -3 43 26 43 19 0 26 -5 23
-16z"/>
</g>
</svg>
